<svg xmlns="http://www.w3.org/2000/svg" width="43" height="42" viewBox="0 0 43 42">
  <g id="blog_icon_3" transform="translate(-338 -1168)">
    <g id="Rectangle_364" data-name="Rectangle 364" transform="translate(338 1168)" fill="none" stroke="#6c757d" stroke-width="1">
      <rect width="43" height="42" rx="5" stroke="none"/>
      <rect x="0.5" y="0.5" width="42" height="41" rx="4.5" fill="none"/>
    </g>
    <path id="Icon_awesome-pinterest-p" data-name="Icon awesome-pinterest-p" d="M7.946.457C3.95.457,0,3.121,0,7.433c0,2.742,1.542,4.3,2.477,4.3.386,0,.608-1.075.608-1.379,0-.362-.923-1.133-.923-2.641A5.264,5.264,0,0,1,7.63,2.362c2.653,0,4.616,1.507,4.616,4.277,0,2.068-.83,5.948-3.517,5.948a1.729,1.729,0,0,1-1.8-1.706c0-1.472,1.028-2.9,1.028-4.417,0-2.579-3.657-2.111-3.657,1a4.576,4.576,0,0,0,.374,1.975c-.538,2.314-1.636,5.761-1.636,8.145,0,.736.105,1.461.175,2.2.132.148.066.132.269.058,1.963-2.688,1.893-3.213,2.781-6.731a3.159,3.159,0,0,0,2.7,1.4c4.137,0,5.994-4.031,5.994-7.665C14.957,2.981,11.615.457,7.946.457Z" transform="translate(351.492 1178.699)" fill="#e71a21"/>
  </g>
</svg>
