<svg xmlns="http://www.w3.org/2000/svg" width="43" height="42" viewBox="0 0 43 42">
  <g id="blog_icon_2" transform="translate(-338 -1111)">
    <g id="Rectangle_363" data-name="Rectangle 363" transform="translate(338 1111)" fill="none" stroke="#6c757d" stroke-width="1">
      <rect width="43" height="42" rx="5" stroke="none"/>
      <rect x="0.5" y="0.5" width="42" height="41" rx="4.5" fill="none"/>
    </g>
    <path id="Icon_awesome-twitter" data-name="Icon awesome-twitter" d="M20.206,7.939c.014.2.014.4.014.6A13.043,13.043,0,0,1,7.088,21.672,13.043,13.043,0,0,1,0,19.6a9.548,9.548,0,0,0,1.115.057,9.244,9.244,0,0,0,5.73-1.972,4.624,4.624,0,0,1-4.316-3.2,5.82,5.82,0,0,0,.872.071A4.882,4.882,0,0,0,4.616,14.4a4.616,4.616,0,0,1-3.7-4.53V9.811A4.648,4.648,0,0,0,3,10.4,4.623,4.623,0,0,1,1.572,4.224a13.12,13.12,0,0,0,9.517,4.83A5.211,5.211,0,0,1,10.975,8a4.62,4.62,0,0,1,7.988-3.158,9.087,9.087,0,0,0,2.929-1.115,4.6,4.6,0,0,1-2.029,2.544,9.253,9.253,0,0,0,2.658-.714,9.922,9.922,0,0,1-2.315,2.386Z" transform="translate(347.89 1119.402)" fill="#1da1f2"/>
  </g>
</svg>
