<?xml version="1.0" encoding="UTF-8" standalone="no"?>
<!-- Created with Inkscape (http://www.inkscape.org/) -->

<svg
   xmlns:dc="http://purl.org/dc/elements/1.1/"
   xmlns:cc="http://creativecommons.org/ns#"
   xmlns:rdf="http://www.w3.org/1999/02/22-rdf-syntax-ns#"
   xmlns:svg="http://www.w3.org/2000/svg"
   xmlns="http://www.w3.org/2000/svg"
   xmlns:sodipodi="http://sodipodi.sourceforge.net/DTD/sodipodi-0.dtd"
   xmlns:inkscape="http://www.inkscape.org/namespaces/inkscape"
   width="30"
   height="30"
   viewBox="0 0 7.9374998 7.9375002"
   version="1.1"
   id="svg678"
   inkscape:version="0.92.4 (5da689c313, 2019-01-14)"
   sodipodi:docname="fav.svg">
  <defs
     id="defs672">
	

		
		
	</defs>
  <sodipodi:namedview
     id="base"
     pagecolor="#ffffff"
     bordercolor="#666666"
     borderopacity="1.0"
     inkscape:pageopacity="0.0"
     inkscape:pageshadow="2"
     inkscape:zoom="7.9195959"
     inkscape:cx="44.977161"
     inkscape:cy="1.6466924"
     inkscape:document-units="mm"
     inkscape:current-layer="layer1"
     showgrid="false"
     showguides="true"
     inkscape:guide-bbox="true"
     units="px"
     inkscape:window-width="1366"
     inkscape:window-height="705"
     inkscape:window-x="1912"
     inkscape:window-y="-8"
     inkscape:window-maximized="1">
    <sodipodi:guide
       position="158.22356,189.96182"
       orientation="0,1"
       id="guide809"
       inkscape:locked="false" />
    <sodipodi:guide
       position="101.69605,189.96182"
       orientation="0,1"
       id="guide811"
       inkscape:locked="false" />
  </sodipodi:namedview>
  <metadata
     id="metadata675">
    <rdf:RDF>
      <cc:Work
         rdf:about="">
        <dc:format>image/svg+xml</dc:format>
        <dc:type
           rdf:resource="http://purl.org/dc/dcmitype/StillImage" />
        <dc:title></dc:title>
      </cc:Work>
    </rdf:RDF>
  </metadata>
  <g
     inkscape:label="Layer 1"
     inkscape:groupmode="layer"
     id="layer1"
     transform="translate(0,-289.06247)">
    <g
       style="fill:#4d4d4d;fill-opacity:1;stroke-width:21.89466286"
       id="g1070"
       transform="matrix(0.01208438,0,0,0.01208438,76.899477,101.16905)">
</g>
    <g
       style="fill:#4d4d4d;fill-opacity:1;stroke-width:21.89466286"
       id="g1072"
       transform="matrix(0.01208438,0,0,0.01208438,76.899477,101.16905)">
</g>
    <g
       style="fill:#4d4d4d;fill-opacity:1;stroke-width:21.89466286"
       id="g1074"
       transform="matrix(0.01208438,0,0,0.01208438,76.899477,101.16905)">
</g>
    <g
       style="fill:#4d4d4d;fill-opacity:1;stroke-width:21.89466286"
       id="g1076"
       transform="matrix(0.01208438,0,0,0.01208438,76.899477,101.16905)">
</g>
    <g
       style="fill:#4d4d4d;fill-opacity:1;stroke-width:21.89466286"
       id="g1078"
       transform="matrix(0.01208438,0,0,0.01208438,76.899477,101.16905)">
</g>
    <g
       style="fill:#4d4d4d;fill-opacity:1;stroke-width:21.89466286"
       id="g1080"
       transform="matrix(0.01208438,0,0,0.01208438,76.899477,101.16905)">
</g>
    <g
       style="fill:#4d4d4d;fill-opacity:1;stroke-width:21.89466286"
       id="g1082"
       transform="matrix(0.01208438,0,0,0.01208438,76.899477,101.16905)">
</g>
    <g
       style="fill:#4d4d4d;fill-opacity:1;stroke-width:21.89466286"
       id="g1084"
       transform="matrix(0.01208438,0,0,0.01208438,76.899477,101.16905)">
</g>
    <g
       style="fill:#4d4d4d;fill-opacity:1;stroke-width:21.89466286"
       id="g1086"
       transform="matrix(0.01208438,0,0,0.01208438,76.899477,101.16905)">
</g>
    <g
       style="fill:#4d4d4d;fill-opacity:1;stroke-width:21.89466286"
       id="g1088"
       transform="matrix(0.01208438,0,0,0.01208438,76.899477,101.16905)">
</g>
    <g
       style="fill:#4d4d4d;fill-opacity:1;stroke-width:21.89466286"
       id="g1090"
       transform="matrix(0.01208438,0,0,0.01208438,76.899477,101.16905)">
</g>
    <g
       style="fill:#4d4d4d;fill-opacity:1;stroke-width:21.89466286"
       id="g1092"
       transform="matrix(0.01208438,0,0,0.01208438,76.899477,101.16905)">
</g>
    <g
       style="fill:#4d4d4d;fill-opacity:1;stroke-width:21.89466286"
       id="g1094"
       transform="matrix(0.01208438,0,0,0.01208438,76.899477,101.16905)">
</g>
    <g
       style="fill:#4d4d4d;fill-opacity:1;stroke-width:21.89466286"
       id="g1096"
       transform="matrix(0.01208438,0,0,0.01208438,76.899477,101.16905)">
</g>
    <g
       style="fill:#4d4d4d;fill-opacity:1;stroke-width:21.89466286"
       id="g1098"
       transform="matrix(0.01208438,0,0,0.01208438,76.899477,101.16905)">
</g>
    <g
       transform="translate(48.813675,6.361109)"
       id="layer1-1"
       inkscape:label="Layer 1">
      <path
         style="fill:#4d4d4d;fill-opacity:1;stroke-width:0.26458335"
         inkscape:connector-curvature="0"
         d="m -44.962208,289.70332 c -0.0949,0 -0.186389,-0.0334 -0.25769,-0.094 -0.269284,-0.22853 -0.528905,-0.44331 -0.757963,-0.63278 l -0.0012,-9.8e-4 c -0.671559,-0.55547 -1.251474,-1.03518 -1.654968,-1.50773 -0.451045,-0.52828 -0.661133,-1.02918 -0.661133,-1.57636 0,-0.53164 0.187812,-1.02212 0.528803,-1.38115 0.345062,-0.36325 0.818535,-0.56332 1.333353,-0.56332 0.384779,0 0.737163,0.11805 1.047338,0.35092 0.156537,0.11759 0.298425,0.26138 0.423429,0.42917 0.125065,-0.16779 0.266894,-0.31164 0.423481,-0.42917 0.310172,-0.23284 0.662556,-0.35092 1.047337,-0.35092 0.514768,0 0.988292,0.20007 1.333351,0.56332 0.340994,0.35903 0.528755,0.84951 0.528755,1.38115 0,0.54718 -0.210038,1.04808 -0.661084,1.57631 -0.403492,0.4726 -0.983357,0.95225 -1.654815,1.50768 -0.229464,0.18975 -0.489492,0.40489 -0.759386,0.63396 -0.07124,0.0607 -0.162798,0.0939 -0.257639,0.0939 z m -1.470767,-5.37731 c -0.404459,0 -0.776017,0.15664 -1.046317,0.44121 -0.274321,0.28883 -0.425415,0.68807 -0.425415,1.12424 0,0.46021 0.176219,0.8718 0.571321,1.33452 0.38188,0.4473 0.949895,0.91712 1.607568,1.46115 l 0.0012,10e-4 c 0.229922,0.19018 0.490561,0.40581 0.761829,0.63603 0.272895,-0.23069 0.533941,-0.44664 0.764321,-0.63713 0.657624,-0.54403 1.225587,-1.01376 1.607469,-1.46106 0.395051,-0.46272 0.571269,-0.87431 0.571269,-1.33452 0,-0.43617 -0.151099,-0.83541 -0.425414,-1.12424 -0.270251,-0.28453 -0.641858,-0.44121 -1.046267,-0.44121 -0.29629,0 -0.568321,0.0915 -0.808516,0.27171 -0.214054,0.16064 -0.363165,0.36389 -0.450587,0.50606 -0.04495,0.0731 -0.124088,0.11665 -0.211715,0.11665 -0.08762,0 -0.16676,-0.0437 -0.211715,-0.11665 -0.08736,-0.14217 -0.236484,-0.34534 -0.450589,-0.50606 -0.240194,-0.18029 -0.512223,-0.27171 -0.808464,-0.27171 z m 0,0"
         id="path92" />
      <g
         id="g797"
         transform="matrix(0.01166712,0,0,0.01166712,-38.866564,283.80081)"
         style="fill:#4d4d4d;fill-opacity:1;stroke-width:22.67769051" />
    </g>
    <g
       id="g871"
       transform="matrix(0.01306413,0,0,0.01306413,6.5861985,288.67521)"
       style="fill:#4d4d4d;fill-opacity:1;stroke-width:20.2526474">
      <g
         id="g817"
         style="fill:#4d4d4d;fill-opacity:1;stroke-width:20.2526474" />
      <g
         id="g819"
         style="fill:#4d4d4d;fill-opacity:1;stroke-width:20.2526474" />
      <g
         id="g821"
         style="fill:#4d4d4d;fill-opacity:1;stroke-width:20.2526474" />
      <g
         id="g823"
         style="fill:#4d4d4d;fill-opacity:1;stroke-width:20.2526474" />
      <g
         id="g825"
         style="fill:#4d4d4d;fill-opacity:1;stroke-width:20.2526474" />
      <g
         id="g827"
         style="fill:#4d4d4d;fill-opacity:1;stroke-width:20.2526474" />
      <g
         id="g829"
         style="fill:#4d4d4d;fill-opacity:1;stroke-width:20.2526474" />
      <g
         id="g831"
         style="fill:#4d4d4d;fill-opacity:1;stroke-width:20.2526474" />
      <g
         id="g833"
         style="fill:#4d4d4d;fill-opacity:1;stroke-width:20.2526474" />
      <g
         id="g835"
         style="fill:#4d4d4d;fill-opacity:1;stroke-width:20.2526474" />
      <g
         id="g837"
         style="fill:#4d4d4d;fill-opacity:1;stroke-width:20.2526474" />
      <g
         id="g839"
         style="fill:#4d4d4d;fill-opacity:1;stroke-width:20.2526474" />
      <g
         id="g841"
         style="fill:#4d4d4d;fill-opacity:1;stroke-width:20.2526474" />
      <g
         id="g843"
         style="fill:#4d4d4d;fill-opacity:1;stroke-width:20.2526474" />
      <g
         id="g845"
         style="fill:#4d4d4d;fill-opacity:1;stroke-width:20.2526474" />
    </g>
  </g>
</svg>
