<?xml version="1.0" encoding="UTF-8" standalone="no"?>
<!-- Created with Inkscape (http://www.inkscape.org/) -->

<svg
   xmlns:dc="http://purl.org/dc/elements/1.1/"
   xmlns:cc="http://creativecommons.org/ns#"
   xmlns:rdf="http://www.w3.org/1999/02/22-rdf-syntax-ns#"
   xmlns:svg="http://www.w3.org/2000/svg"
   xmlns="http://www.w3.org/2000/svg"
   xmlns:sodipodi="http://sodipodi.sourceforge.net/DTD/sodipodi-0.dtd"
   xmlns:inkscape="http://www.inkscape.org/namespaces/inkscape"
   width="25.193752"
   height="21.75617"
   viewBox="0 0 6.6658468 5.7563202"
   version="1.1"
   id="svg8"
   inkscape:version="0.92.4 (5da689c313, 2019-01-14)"
   sodipodi:docname="heart-fill.svg">
  <defs
     id="defs2" />
  <sodipodi:namedview
     id="base"
     pagecolor="#ffffff"
     bordercolor="#666666"
     borderopacity="1.0"
     inkscape:pageopacity="0.0"
     inkscape:pageshadow="2"
     inkscape:zoom="15.839192"
     inkscape:cx="24.849673"
     inkscape:cy="3.8709263"
     inkscape:document-units="mm"
     inkscape:current-layer="layer1"
     showgrid="false"
     units="px"
     inkscape:window-width="1920"
     inkscape:window-height="1017"
     inkscape:window-x="-8"
     inkscape:window-y="-8"
     inkscape:window-maximized="1" />
  <metadata
     id="metadata5">
    <rdf:RDF>
      <cc:Work
         rdf:about="">
        <dc:format>image/svg+xml</dc:format>
        <dc:type
           rdf:resource="http://purl.org/dc/dcmitype/StillImage" />
        <dc:title></dc:title>
      </cc:Work>
    </rdf:RDF>
  </metadata>
  <g
     inkscape:label="Layer 1"
     inkscape:groupmode="layer"
     id="layer1"
     transform="translate(-95.556802,-96.743289)">
    <g
       transform="matrix(0.93985696,0,0,0.93985696,95.24785,-175.92028)"
       id="layer1-4"
       inkscape:label="Layer 1"
       style="fill:#f45569;fill-opacity:1;stroke-width:1.06399167">
      <g
         transform="matrix(0.01208438,0,0,0.01208438,76.899477,101.16905)"
         id="g1070"
         style="fill:#f45569;fill-opacity:1;stroke-width:23.29574013" />
      <g
         transform="matrix(0.01208438,0,0,0.01208438,76.899477,101.16905)"
         id="g1072"
         style="fill:#f45569;fill-opacity:1;stroke-width:23.29574013" />
      <g
         transform="matrix(0.01208438,0,0,0.01208438,76.899477,101.16905)"
         id="g1074"
         style="fill:#f45569;fill-opacity:1;stroke-width:23.29574013" />
      <g
         transform="matrix(0.01208438,0,0,0.01208438,76.899477,101.16905)"
         id="g1076"
         style="fill:#f45569;fill-opacity:1;stroke-width:23.29574013" />
      <g
         transform="matrix(0.01208438,0,0,0.01208438,76.899477,101.16905)"
         id="g1078"
         style="fill:#f45569;fill-opacity:1;stroke-width:23.29574013" />
      <g
         transform="matrix(0.01208438,0,0,0.01208438,76.899477,101.16905)"
         id="g1080"
         style="fill:#f45569;fill-opacity:1;stroke-width:23.29574013" />
      <g
         transform="matrix(0.01208438,0,0,0.01208438,76.899477,101.16905)"
         id="g1082"
         style="fill:#f45569;fill-opacity:1;stroke-width:23.29574013" />
      <g
         transform="matrix(0.01208438,0,0,0.01208438,76.899477,101.16905)"
         id="g1084"
         style="fill:#f45569;fill-opacity:1;stroke-width:23.29574013" />
      <g
         transform="matrix(0.01208438,0,0,0.01208438,76.899477,101.16905)"
         id="g1086"
         style="fill:#f45569;fill-opacity:1;stroke-width:23.29574013" />
      <g
         transform="matrix(0.01208438,0,0,0.01208438,76.899477,101.16905)"
         id="g1088"
         style="fill:#f45569;fill-opacity:1;stroke-width:23.29574013" />
      <g
         transform="matrix(0.01208438,0,0,0.01208438,76.899477,101.16905)"
         id="g1090"
         style="fill:#f45569;fill-opacity:1;stroke-width:23.29574013" />
      <g
         transform="matrix(0.01208438,0,0,0.01208438,76.899477,101.16905)"
         id="g1092"
         style="fill:#f45569;fill-opacity:1;stroke-width:23.29574013" />
      <g
         transform="matrix(0.01208438,0,0,0.01208438,76.899477,101.16905)"
         id="g1094"
         style="fill:#f45569;fill-opacity:1;stroke-width:23.29574013" />
      <g
         transform="matrix(0.01208438,0,0,0.01208438,76.899477,101.16905)"
         id="g1096"
         style="fill:#f45569;fill-opacity:1;stroke-width:23.29574013" />
      <g
         transform="matrix(0.01208438,0,0,0.01208438,76.899477,101.16905)"
         id="g1098"
         style="fill:#f45569;fill-opacity:1;stroke-width:23.29574013" />
      <g
         inkscape:label="Layer 1"
         id="layer1-1"
         transform="translate(48.813675,6.361109)"
         style="fill:#f45569;fill-opacity:1;stroke-width:1.06399167">
        <path
           id="path92"
           d="m -44.962208,289.70332 c -0.0949,0 -0.186389,-0.0334 -0.25769,-0.094 -0.269284,-0.22853 -0.528905,-0.44331 -0.757963,-0.63278 l -0.0012,-9.8e-4 c -0.671559,-0.55547 -1.251474,-1.03518 -1.654968,-1.50773 -0.451045,-0.52828 -0.661133,-1.02918 -0.661133,-1.57636 0,-0.53164 0.187812,-1.02212 0.528803,-1.38115 0.345062,-0.36325 0.818535,-0.56332 1.333353,-0.56332 0.384779,0 0.737163,0.11805 1.047338,0.35092 0.156537,0.11759 0.298425,0.26138 0.423429,0.42917 0.125065,-0.16779 0.266894,-0.31164 0.423481,-0.42917 0.310172,-0.23284 0.662556,-0.35092 1.047337,-0.35092 0.514768,0 0.988292,0.20007 1.333351,0.56332 0.340994,0.35903 0.528755,0.84951 0.528755,1.38115 0,0.54718 -0.210038,1.04808 -0.661084,1.57631 -0.403492,0.4726 -0.983357,0.95225 -1.654815,1.50768 -0.229464,0.18975 -0.489492,0.40489 -0.759386,0.63396 -0.07124,0.0607 -0.162798,0.0939 -0.257639,0.0939 z"
           inkscape:connector-curvature="0"
           style="fill:#f45569;fill-opacity:1;stroke-width:0.2815145"
           sodipodi:nodetypes="cccccscscccscsccccc" />
        <g
           style="fill:#f45569;fill-opacity:1;stroke-width:24.12887383"
           transform="matrix(0.01166712,0,0,0.01166712,-38.866564,283.80081)"
           id="g797" />
      </g>
      <g
         style="fill:#f45569;fill-opacity:1;stroke-width:21.54864883"
         transform="matrix(0.01306413,0,0,0.01306413,6.5861985,288.67521)"
         id="g871">
        <g
           style="fill:#f45569;fill-opacity:1;stroke-width:21.54864883"
           id="g817" />
        <g
           style="fill:#f45569;fill-opacity:1;stroke-width:21.54864883"
           id="g819" />
        <g
           style="fill:#f45569;fill-opacity:1;stroke-width:21.54864883"
           id="g821" />
        <g
           style="fill:#f45569;fill-opacity:1;stroke-width:21.54864883"
           id="g823" />
        <g
           style="fill:#f45569;fill-opacity:1;stroke-width:21.54864883"
           id="g825" />
        <g
           style="fill:#f45569;fill-opacity:1;stroke-width:21.54864883"
           id="g827" />
        <g
           style="fill:#f45569;fill-opacity:1;stroke-width:21.54864883"
           id="g829" />
        <g
           style="fill:#f45569;fill-opacity:1;stroke-width:21.54864883"
           id="g831" />
        <g
           style="fill:#f45569;fill-opacity:1;stroke-width:21.54864883"
           id="g833" />
        <g
           style="fill:#f45569;fill-opacity:1;stroke-width:21.54864883"
           id="g835" />
        <g
           style="fill:#f45569;fill-opacity:1;stroke-width:21.54864883"
           id="g837" />
        <g
           style="fill:#f45569;fill-opacity:1;stroke-width:21.54864883"
           id="g839" />
        <g
           style="fill:#f45569;fill-opacity:1;stroke-width:21.54864883"
           id="g841" />
        <g
           style="fill:#f45569;fill-opacity:1;stroke-width:21.54864883"
           id="g843" />
        <g
           style="fill:#f45569;fill-opacity:1;stroke-width:21.54864883"
           id="g845" />
      </g>
    </g>
  </g>
</svg>
