<svg xmlns="http://www.w3.org/2000/svg" width="27" height="27" viewBox="0 0 27 27">
  <g id="icon_instagram" transform="translate(-836 -1184)">
    <rect id="Rectangle_42" data-name="Rectangle 42" width="27" height="27" transform="translate(836 1184)" fill="#efefef"/>
    <g id="_2" data-name="2" transform="translate(842.673 1191.181)">
      <path id="Path_32" data-name="Path 32" d="M9.443,0H3.5A3.509,3.509,0,0,0,0,3.505V9.444A3.509,3.509,0,0,0,3.5,12.949H9.443a3.509,3.509,0,0,0,3.505-3.505V3.505A3.509,3.509,0,0,0,9.443,0Zm2.746,9.444A2.749,2.749,0,0,1,9.443,12.19H3.5A2.749,2.749,0,0,1,.758,9.444V3.505A2.749,2.749,0,0,1,3.5.759H9.443a2.749,2.749,0,0,1,2.746,2.746Zm0,0" transform="translate(0.001 0)"/>
      <path id="Path_33" data-name="Path 33" d="M119.545,116a3.541,3.541,0,1,0,3.541,3.541A3.545,3.545,0,0,0,119.545,116Zm0,6.322a2.782,2.782,0,1,1,2.782-2.782A2.785,2.785,0,0,1,119.545,122.326Zm0,0" transform="translate(-113.07 -113.07)"/>
      <path id="Path_34" data-name="Path 34" d="M359.023,66.285a1.046,1.046,0,1,0,1.046,1.046A1.047,1.047,0,0,0,359.023,66.285Zm0,1.333a.287.287,0,1,1,.287-.287A.287.287,0,0,1,359.023,67.619Zm0,0" transform="translate(-348.923 -64.609)"/>
    </g>
  </g>
</svg>
