<svg xmlns="http://www.w3.org/2000/svg" width="27" height="27" viewBox="0 0 27 27">
  <g id="icon_whatsapp" transform="translate(-803 -1152)">
    <rect id="Rectangle_42" data-name="Rectangle 42" width="27" height="27" transform="translate(803 1152)" fill="#efefef"/>
    <g id="whatsapp" transform="translate(810.331 1159.332)">
      <g id="Group_66" data-name="Group 66" transform="translate(3.811 3.756)">
        <g id="Group_65" data-name="Group 65">
          <path id="Path_28" data-name="Path 28" d="M187.488,184.321c-.036-.058-.129-.094-.27-.164s-.835-.408-.964-.455a.471.471,0,0,0-.151-.037.2.2,0,0,0-.166.106c-.094.14-.365.455-.446.549a.2.2,0,0,1-.151.08.347.347,0,0,1-.153-.046,3.808,3.808,0,0,1-1.135-.693,4.256,4.256,0,0,1-.785-.97c-.082-.139-.008-.215.063-.285s.14-.164.212-.246a.926.926,0,0,0,.14-.233.256.256,0,0,0-.012-.245c-.035-.07-.316-.758-.435-1.039-.087-.209-.176-.236-.249-.236-.025,0-.048,0-.069,0-.081,0-.174-.012-.27-.012a.519.519,0,0,0-.376.176,1.562,1.562,0,0,0-.494,1.166,2.694,2.694,0,0,0,.577,1.447,5.76,5.76,0,0,0,2.409,2.113,4.4,4.4,0,0,0,1.378.4,2.252,2.252,0,0,0,.315-.049,1.428,1.428,0,0,0,.952-.666A1.153,1.153,0,0,0,187.488,184.321Z" transform="translate(-181.776 -180.4)"/>
        </g>
      </g>
      <g id="Group_69" data-name="Group 69" transform="translate(0 0)">
        <g id="Group_68" data-name="Group 68">
          <g id="Group_67" data-name="Group 67">
            <path id="Path_30" data-name="Path 30" d="M94.956,88.32a6.391,6.391,0,0,0-6.406,6.362,6.317,6.317,0,0,0,.764,3.017l-.943,2.784a.653.653,0,0,0,.816.831l2.927-.929a6.465,6.465,0,0,0,2.842.658,6.362,6.362,0,1,0,0-12.724Zm0,11.419a5.132,5.132,0,0,1-2.466-.629.655.655,0,0,0-.512-.05l-1.956.621.624-1.84a.654.654,0,0,0-.061-.55,5.01,5.01,0,0,1-.729-2.608,5.1,5.1,0,1,1,5.1,5.056Z" transform="translate(-88.337 -88.32)"/>
          </g>
        </g>
      </g>
    </g>
  </g>
</svg>
