<svg xmlns="http://www.w3.org/2000/svg" width="27" height="27" viewBox="0 0 27 27">
  <g id="icon_twitter" transform="translate(-770 -1152)">
    <rect id="Rectangle_42" data-name="Rectangle 42" width="27" height="27" transform="translate(770 1152)" fill="#efefef"/>
    <path id="follow_twitter" d="M13.692,1.5c-.861.04-.842.036-.94.045l.51-1.457s-1.592.586-2,.69A3.2,3.2,0,0,0,7.5.473,2.606,2.606,0,0,0,6.251,3.152,6.95,6.95,0,0,1,1.749.617L1.371.164,1.089.682A3.132,3.132,0,0,0,.755,2.791a3.03,3.03,0,0,0,.294.823L.725,3.488.686,4.03a2.889,2.889,0,0,0,.49,1.717,3.054,3.054,0,0,0,.382.471L1.39,6.192l.2.62a3.016,3.016,0,0,0,1.55,1.8c-.723.307-1.307.5-2.267.818L0,9.716l.811.444a8.515,8.515,0,0,0,2.482.9c2.4.376,5.1.07,6.923-1.569a6.516,6.516,0,0,0,1.931-5.387,1.277,1.277,0,0,1,.239-.831c.34-.454,1.3-1.776,1.306-1.779ZM11.744,2.8a2.079,2.079,0,0,0-.4,1.353A5.671,5.671,0,0,1,9.68,8.9a7.572,7.572,0,0,1-6.262,1.373,6.21,6.21,0,0,1-1.342-.4,21.275,21.275,0,0,0,2.43-1l1.4-.663-1.547-.1a2.188,2.188,0,0,1-1.737-.99,2.775,2.775,0,0,0,.589-.1l1.476-.411L3.2,6.248a2.216,2.216,0,0,1-1.354-.941,2.27,2.27,0,0,1-.293-.647,3.714,3.714,0,0,0,.6.1l1.377.136L2.442,4.04a2.3,2.3,0,0,1-.87-2.42A7.982,7.982,0,0,0,7.2,4.041a4.75,4.75,0,0,0-.082-.68,1.842,1.842,0,0,1,.81-2.2,2.4,2.4,0,0,1,2.827.234.718.718,0,0,0,.659.176,5.544,5.544,0,0,0,.543-.165l-.346.988h.442l-.3.406Zm0,0" transform="translate(776.887 1160.089)"/>
  </g>
</svg>
