<svg xmlns="http://www.w3.org/2000/svg" width="27" height="27" viewBox="0 0 27 27">
  <g id="icon_facebook" transform="translate(-737 -1152)">
    <rect id="Rectangle_42" data-name="Rectangle 42" width="27" height="27" transform="translate(737 1152)" fill="#efefef"/>
    <path id="follow_facebook" d="M5.533,14.357h-2.3a.7.7,0,0,1-.7-.7V8.474H1.2a.7.7,0,0,1-.7-.7V5.556a.7.7,0,0,1,.7-.7H2.538V3.747a3.789,3.789,0,0,1,1-2.715A3.609,3.609,0,0,1,6.2,0L7.954,0a.7.7,0,0,1,.7.7V2.762a.7.7,0,0,1-.7.7H6.772c-.36,0-.452.072-.471.094s-.071.14-.071.427v.879H7.864a.708.708,0,0,1,.345.088.7.7,0,0,1,.358.609V7.778a.7.7,0,0,1-.7.7H6.23V13.66a.7.7,0,0,1-.7.7ZM3.38,13.515H5.388V8.1a.466.466,0,0,1,.465-.465H7.724V5.7H5.853a.465.465,0,0,1-.465-.465V3.98A1.433,1.433,0,0,1,5.67,3a1.427,1.427,0,0,1,1.1-.379H7.807V.844L6.2.841A2.657,2.657,0,0,0,3.38,3.747V5.236a.466.466,0,0,1-.465.465H1.342V7.633H2.915A.465.465,0,0,1,3.38,8.1ZM7.952.844h0Zm0,0" transform="translate(745.5 1158.001)"/>
  </g>
</svg>
