<svg xmlns="http://www.w3.org/2000/svg" width="27" height="27" viewBox="0 0 27 27">
  <g id="icon_message" transform="translate(-836 -1152)">
    <rect id="Rectangle_42" data-name="Rectangle 42" width="27" height="27" transform="translate(836 1152)" fill="#efefef"/>
    <path id="email" d="M11.881,59.882H1.229A1.23,1.23,0,0,0,0,61.111v7.375a1.23,1.23,0,0,0,1.229,1.229H11.881a1.23,1.23,0,0,0,1.229-1.229V61.111A1.23,1.23,0,0,0,11.881,59.882Zm0,.819a.407.407,0,0,1,.157.032L6.555,65.485,1.072,60.733a.408.408,0,0,1,.157-.032Zm0,8.194H1.229a.41.41,0,0,1-.41-.41V61.6l5.467,4.738a.41.41,0,0,0,.537,0L12.291,61.6v6.887A.41.41,0,0,1,11.881,68.9Z" transform="translate(842.785 1101.118)"/>
  </g>
</svg>
