<svg xmlns="http://www.w3.org/2000/svg" width="395.014" height="45.256" viewBox="0 0 395.014 45.256">
  <path id="logo_white" d="M281.041,331.849a16.765,16.765,0,0,1-8.772-3.6c-.812-.648-1.092-.688-1.458-.208a5.611,5.611,0,0,0-.754,2.042l-.116.59h-.526c-.517,0-.527,0-.575-.321-.027-.177-.185-2.854-.351-5.95s-.325-5.84-.354-6.1l-.052-.469h.55c.355,0,.562.045.586.124s.154.741.3,1.5a14.182,14.182,0,0,0,2.488,6.171,15.511,15.511,0,0,0,6.966,4.593,14.8,14.8,0,0,0,8.753-.145c3.342-1.337,5.234-4.557,5.022-8.546-.126-2.37-.54-3.374-1.993-4.832-1.6-1.608-2.239-2-8.319-5.117-6.389-3.276-7.65-4.015-9.033-5.294a11.941,11.941,0,0,1-3.141-4.946,13.8,13.8,0,0,1-.2-4.366,11.6,11.6,0,0,1,6.646-9.054,12.992,12.992,0,0,1,6.1-1.229,11.623,11.623,0,0,1,6.312,1.485,18.015,18.015,0,0,1,2.877,1.868.5.5,0,0,0,.72-.04,4.744,4.744,0,0,0,.628-1.968l.059-.617h1.112l.273,5.505c.15,3.028.272,5.606.269,5.728,0,.2-.05.222-.575.222h-.57l-.17-.825a18.853,18.853,0,0,0-2.169-5.659,9.583,9.583,0,0,0-6.229-4.4,11.014,11.014,0,0,0-4.631.05,9.449,9.449,0,0,0-3.161,1.5,7.535,7.535,0,0,0-2.5,3.754,10.051,10.051,0,0,0-.108,3.555,8.447,8.447,0,0,0,2.43,4.234c1.376,1.3,2.051,1.684,11.136,6.371,4.46,2.3,5.743,3.149,7.43,4.911a8.943,8.943,0,0,1,2,2.915,7.368,7.368,0,0,1,.636,3.987,11.059,11.059,0,0,1-2.5,7.223,13.438,13.438,0,0,1-6.707,4.471,20.6,20.6,0,0,1-8.327.89Zm-270.305-.977v-.592H11.3a11.585,11.585,0,0,0,4.424-.9,3.418,3.418,0,0,0,1.7-1.538c.637-1.2.635-1.176.72-7.686.1-7.321.1-30.326.008-30.663s-.674-.645-1.541-.848a42.606,42.606,0,0,0-7.11-.155c-2.872.182-4.018.6-5.388,1.98-1.329,1.335-1.84,2.617-2.084,5.219l-.113,1.21H.762v-9.678H21.056c16.169,0,20.294.022,20.295.124,0,.068.111,2.19.246,4.716s.246,4.67.246,4.765c0,.143-.09.173-.533.173h-.534l-.066-.518a14.605,14.605,0,0,0-1.145-4.515,6.749,6.749,0,0,0-4.95-3.235,25.224,25.224,0,0,0-4.474-.174c-3.155,0-3.637.018-4.278.185-.842.215-1.255.521-1.4,1.031-.132.475-.134,33.223,0,35.026.051.706.144,1.528.206,1.827a3.986,3.986,0,0,0,2.091,2.747,11.769,11.769,0,0,0,4.44.908h.57v1.185H10.736Zm46.217.013v-.574l.994-.116a8.1,8.1,0,0,0,3.04-.937,7.154,7.154,0,0,0,2.274-2.524c.236-.454,3.931-9.52,8.211-20.146l7.781-19.32h1.431L85.6,299.414c10.723,26.458,10.9,26.87,11.876,28.387,1.2,1.848,2.234,2.469,4.133,2.473l.765,0v1.185H83.616v-1.151l1.262-.112a6.4,6.4,0,0,0,2.907-.76,3.688,3.688,0,0,0,1.164-3.028,11.031,11.031,0,0,0-3.641-7.359,20.191,20.191,0,0,0-7.468-3.687,34.853,34.853,0,0,0-7.046-.972l-.43.036-.536,1.333c-2.473,6.15-3.691,9.8-3.768,11.285a2.727,2.727,0,0,0,.493,2.089c.548.665,1.571,1.014,3.264,1.111l1.062.061v1.155H56.953Zm28.425-16.011c-.338-.963-7.456-19.161-7.495-19.162-.077,0-6.71,16.6-6.71,16.792a4.559,4.559,0,0,0,1.111.135A47.113,47.113,0,0,1,84.851,314.8c.476.18.57.193.527.07Zm33.889,15.993v-.592l.518,0a14.76,14.76,0,0,0,3.333-.513,3.713,3.713,0,0,0,2.049-1.958c.415-1.111.429-1.7.45-18.917.019-15.41.008-16.535-.154-17.287-.508-2.354-1.369-2.932-4.838-3.248l-.667-.061v-1.081l10.493.04c11.233.04,10.97.031,13.369.553a15.4,15.4,0,0,1,6.829,3.4,10.955,10.955,0,0,1,1.009,13.876,13.444,13.444,0,0,1-7.619,4.7c-.6.157-.919.287-.911.372.016.2,9.565,16.028,10.122,16.783a10.82,10.82,0,0,0,2.537,2.4,6.254,6.254,0,0,0,2.5.877l.776.113v1.145H148.009l-.137-.222c-.076-.122-1.5-2.666-3.177-5.654-3.308-5.912-7.19-12.758-7.962-14.041l-.486-.808-.562.248a7.7,7.7,0,0,0-3.7,3.082l-.321.652v5.631c0,6.254.027,6.6.606,7.753.72,1.439,1.852,1.943,4.8,2.139l.963.064v1.155H119.267v-.593Zm14.77-21.541a14.707,14.707,0,0,1,4.6-1.613c1.124-.251,2.429-.587,2.9-.746,3.823-1.292,5.505-4.053,5.5-9.034,0-2.807-.551-4.338-2.189-6.089a10.863,10.863,0,0,0-6.268-3.353c-.335-.061-1.885-.133-3.445-.16l-2.836-.049-.3.3-.3.3V311.3l.771-.758a9.222,9.222,0,0,1,1.555-1.215Zm41.915,21.553V330.3l.765-.072a6.684,6.684,0,0,0,4.138-1.659,6.343,6.343,0,0,0,1.538-2.071c.169-.339,3.807-9.3,8.084-19.922l7.777-19.307h1.43l4.723,11.653c10.911,26.923,11.1,27.377,12.073,28.88,1.2,1.848,2.233,2.469,4.133,2.473h.765v1.185H202.616v-1.151l1.262-.112c2.595-.231,3.488-.786,3.917-2.436a7.445,7.445,0,0,0-.677-4.785,11.439,11.439,0,0,0-5.855-5.915,23.54,23.54,0,0,0-4.424-1.7,34.842,34.842,0,0,0-7.046-.972l-.43.036-.339.839c-1.043,2.578-2.719,6.984-2.948,7.752-.146.489-.42,1.378-.608,1.975a6.9,6.9,0,0,0-.335,3.342c.336,1.2,1.459,1.781,3.683,1.909l1.062.061v1.155H175.952Zm28.4-16.084c-1.016-2.7-7.428-19.083-7.467-19.083-.074,0-6.422,15.892-6.651,16.651-.061.2-.022.212,1.05.277a63.284,63.284,0,0,1,8.323,1.007,36.012,36.012,0,0,1,4.317,1.173c.43.187.507.182.429-.022Zm114.3,16.087V330.3l.914-.061a10.372,10.372,0,0,0,3.209-.627,3.79,3.79,0,0,0,2.01-3c.163-1,.253-32.89.1-34.231-.2-1.7-.667-2.728-1.477-3.238a8.279,8.279,0,0,0-3.493-.8l-.667-.062v-1.081l10.493.036c10.277.036,10.521.04,11.851.254,7.7,1.242,11.967,5.827,11.349,12.2a9.856,9.856,0,0,1-1.005,3.767c-1.383,2.822-3.914,4.831-7.568,6.009a15.175,15.175,0,0,1-1.508.42,1.076,1.076,0,0,0-.456.143c-.049.08,8.82,14.9,9.81,16.388a11.276,11.276,0,0,0,2.933,2.932,6.761,6.761,0,0,0,2.608.877l.6.068v1.161l-5.537-.027-5.537-.027-2.075-3.7c-7.075-12.626-9.488-16.825-9.7-16.868a3.785,3.785,0,0,0-.969.382c-2.077,1.039-3.264,2.293-3.538,3.739-.131.689-.131,8.831,0,10.542.191,2.509.8,3.6,2.35,4.229a14.716,14.716,0,0,0,3.485.544h.485v1.185H318.652v-.578Zm14.209-21.242a11.714,11.714,0,0,1,3.75-1.608c4.1-.975,4.405-1.064,5.4-1.549,3.031-1.488,4.325-4.007,4.341-8.451a8.663,8.663,0,0,0-.608-3.851,10.457,10.457,0,0,0-4.9-4.788c-1.839-.831-3.465-1.088-6.88-1.088-2.352,0-2.36,0-2.637.239l-.277.239-.027,11.277-.027,11.277.618-.635a9.66,9.66,0,0,1,1.248-1.06Zm44.353,21.242V330.3l1.222-.112c3.328-.306,4.274-1.015,4.809-3.606.354-1.711.4-4.419.359-19.321-.046-15.632-.022-14.982-.668-16.537-.613-1.473-1.731-2.067-4.464-2.374l-.568-.064v-1.072h17.381v1.072l-.568.063c-2.477.274-3.648.868-4.267,2.166a8.644,8.644,0,0,0-.694,3.55c-.144,2.6-.153,30.226-.013,31.466.211,1.829.535,2.78,1.194,3.494.7.758,1.716,1.086,3.75,1.21l1.089.066v1.155H377.21Z" transform="translate(-0.762 -286.686)" fill="#fff"/>
</svg>
