<?xml version="1.0" encoding="UTF-8" standalone="no"?>
<!-- Created with Inkscape (http://www.inkscape.org/) -->

<svg
   xmlns:dc="http://purl.org/dc/elements/1.1/"
   xmlns:cc="http://creativecommons.org/ns#"
   xmlns:rdf="http://www.w3.org/1999/02/22-rdf-syntax-ns#"
   xmlns:svg="http://www.w3.org/2000/svg"
   xmlns="http://www.w3.org/2000/svg"
   xmlns:sodipodi="http://sodipodi.sourceforge.net/DTD/sodipodi-0.dtd"
   xmlns:inkscape="http://www.inkscape.org/namespaces/inkscape"
   width="340"
   height="40"
   viewBox="0 0 89.958334 10.583333"
   version="1.1"
   id="svg49"
   inkscape:version="0.92.4 (5da689c313, 2019-01-14)"
   sodipodi:docname="logo.svg">
  <defs
     id="defs43" />
  <sodipodi:namedview
     id="base"
     pagecolor="#ffffff"
     bordercolor="#666666"
     borderopacity="1.0"
     inkscape:pageopacity="0.0"
     inkscape:pageshadow="2"
     inkscape:zoom="3.959798"
     inkscape:cx="162.25674"
     inkscape:cy="62.139505"
     inkscape:document-units="mm"
     inkscape:current-layer="layer1"
     showgrid="false"
     units="px"
     inkscape:window-width="1920"
     inkscape:window-height="1017"
     inkscape:window-x="-8"
     inkscape:window-y="-8"
     inkscape:window-maximized="1" />
  <metadata
     id="metadata46">
    <rdf:RDF>
      <cc:Work
         rdf:about="">
        <dc:format>image/svg+xml</dc:format>
        <dc:type
           rdf:resource="http://purl.org/dc/dcmitype/StillImage" />
        <dc:title></dc:title>
      </cc:Work>
    </rdf:RDF>
  </metadata>
  <g
     inkscape:label="Layer 1"
     inkscape:groupmode="layer"
     id="layer1"
     transform="translate(0,-286.41668)">
    <path
       style="fill:#000000;fill-opacity:1;stroke-width:0.99999994"
       d="m 63.603694,296.8123 c -0.70406,-0.0679 -1.39633,-0.35216 -1.9668,-0.80755 -0.18206,-0.14532 -0.24476,-0.15426 -0.32689,-0.0466 -0.0645,0.0845 -0.13108,0.26494 -0.16904,0.45787 l -0.026,0.13233 h -0.1179 c -0.116,0 -0.11808,-8.7e-4 -0.12887,-0.072 -0.006,-0.0396 -0.0415,-0.6399 -0.0786,-1.33405 -0.0372,-0.69416 -0.0729,-1.30943 -0.0793,-1.36728 l -0.0117,-0.10517 h 0.12323 c 0.0795,0 0.12611,0.01 0.13134,0.0277 0.004,0.0152 0.0346,0.16621 0.067,0.33553 0.11422,0.59631 0.30343,1.06555 0.55784,1.38355 0.34658,0.43316 1.01005,0.87058 1.56186,1.02972 0.64787,0.18684 1.44777,0.17365 1.96256,-0.0324 0.74927,-0.29985 1.17345,-1.02169 1.12601,-1.91617 -0.0282,-0.5314 -0.12097,-0.75639 -0.44678,-1.08336 -0.35936,-0.36066 -0.50206,-0.44845 -1.86521,-1.14741 -1.43242,-0.73449 -1.71533,-0.90028 -2.02541,-1.18702 -0.31297,-0.28942 -0.59787,-0.73803 -0.70427,-1.10897 -0.0617,-0.21526 -0.0834,-0.69209 -0.0444,-0.97896 0.12206,-0.89911 0.67623,-1.65415 1.49004,-2.03013 0.4414,-0.20393 0.79457,-0.27515 1.36687,-0.27567 0.5994,-4.6e-4 0.92754,0.0766 1.41521,0.33303 0.22869,0.1202 0.59419,0.35753 0.6451,0.41886 0.0366,0.0442 0.11763,0.0399 0.16136,-0.009 0.0542,-0.0599 0.12568,-0.28404 0.14071,-0.44129 l 0.0132,-0.13839 h 0.12469 0.12468 l 0.0613,1.23441 c 0.0337,0.67893 0.0609,1.25685 0.0603,1.28424 -8.6e-4,0.0458 -0.0112,0.0498 -0.12882,0.0498 h -0.12786 l -0.0381,-0.18502 c -0.0908,-0.44097 -0.29564,-0.97547 -0.48635,-1.26888 -0.34799,-0.5354 -0.79039,-0.84789 -1.39663,-0.98651 -0.30736,-0.0703 -0.74935,-0.0655 -1.03841,0.0112 -0.25781,0.0684 -0.5359,0.2004 -0.70885,0.33646 -0.25964,0.20426 -0.48292,0.54011 -0.5596,0.8417 -0.0538,0.21184 -0.0654,0.58941 -0.0242,0.79718 0.0654,0.33022 0.2741,0.69402 0.54473,0.94932 0.30857,0.29109 0.45979,0.3776 2.49673,1.42837 1,0.51584 1.28772,0.70601 1.66591,1.10104 0.22373,0.23371 0.33174,0.39151 0.44743,0.65367 0.13243,0.30011 0.15659,0.45154 0.14262,0.89384 -0.0216,0.68541 -0.17138,1.11852 -0.55985,1.61949 -0.35578,0.4588 -0.8394,0.78117 -1.50377,1.00236 -0.57175,0.19034 -1.23136,0.26083 -1.86703,0.19951 z M 2.9978248,296.59265 v -0.13285 l 0.127317,-6e-5 c 0.333447,-1.8e-4 0.758424,-0.0865 0.991873,-0.20138 0.191806,-0.0944 0.299311,-0.19185 0.380571,-0.3449 0.142896,-0.26912 0.142388,-0.26372 0.161448,-1.72323 0.02146,-1.64144 0.0228,-6.79952 0.0019,-6.87493 -0.02016,-0.0725 -0.151153,-0.14458 -0.345571,-0.19023 -0.204458,-0.048 -1.083527,-0.0671 -1.594223,-0.0347 -0.643954,0.0409 -0.900954,0.13534 -1.2079889,0.44397 -0.297885,0.29942 -0.412651,0.58686 -0.467264,1.17022 l -0.02539,0.27124 h -0.129455 -0.129464 v -1.08496 -1.08496 h 4.5501959 c 3.62533,0 4.5502072,0.005 4.5503032,0.0277 6.9e-5,0.0152 0.02482,0.49099 0.05512,1.05728 0.03029,0.56627 0.05512,1.04703 0.0552,1.06835 1.65e-4,0.0321 -0.02014,0.0387 -0.119471,0.0387 H 9.733221 l -0.01476,-0.11624 c -0.05599,-0.44241 -0.149704,-0.81197 -0.2567202,-1.01241 -0.198884,-0.37252 -0.588484,-0.62718 -1.109769,-0.72538 -0.172245,-0.0325 -0.337035,-0.0388 -1.003214,-0.0389 -0.707383,-8e-5 -0.81537,0.004 -0.95925,0.0414 -0.188711,0.0483 -0.28137,0.11672 -0.313147,0.23113 -0.0296,0.10656 -0.03012,7.44907 -4.95e-4,7.85326 0.01154,0.15821 0.03238,0.34255 0.04626,0.40964 0.05494,0.26618 0.232927,0.49997 0.468736,0.61583 0.233691,0.11482 0.66782,0.20363 0.995463,0.20363 h 0.127899 v 0.13284 0.13286 h -2.358125 -2.358126 z m 10.3624822,0.003 v -0.12878 l 0.222858,-0.0261 c 0.256936,-0.0301 0.511823,-0.10875 0.681525,-0.21017 0.178087,-0.10645 0.397448,-0.34995 0.509766,-0.56585 0.05295,-0.10183 0.881373,-2.13447 1.840901,-4.51698 l 1.744588,-4.33185 h 0.160379 0.160372 l 1.10378,2.72348 c 2.40423,5.93222 2.442882,6.02462 2.662842,6.36464 0.268002,0.41427 0.500782,0.55354 0.926725,0.5544 l 0.171604,3.3e-4 v 0.13285 0.13286 h -2.103496 -2.103496 v -0.12905 -0.12904 l 0.282984,-0.0252 c 0.310266,-0.0276 0.524965,-0.0837 0.651745,-0.17034 0.160562,-0.10972 0.260937,-0.3709 0.260937,-0.67892 0,-0.53363 -0.359125,-1.25939 -0.816455,-1.64997 -0.400807,-0.3423 -1.062212,-0.66878 -1.674515,-0.82657 -0.453554,-0.11689 -1.327437,-0.2374 -1.579894,-0.21789 l -0.09636,0.008 -0.120235,0.29891 c -0.554572,1.37884 -0.827627,2.19655 -0.8449,2.53025 -0.01189,0.2304 0.01762,0.35564 0.110479,0.46829 0.122978,0.1492 0.352242,0.22727 0.731861,0.24922 l 0.23803,0.0137 v 0.12953 0.12954 h -1.561023 -1.561006 z m 6.373217,-3.58995 c -0.07586,-0.21601 -1.671676,-4.29615 -1.680399,-4.29637 -0.01719,-4.2e-4 -1.504369,3.72148 -1.504369,3.76495 0,0.009 0.112101,0.022 0.249097,0.0303 1.152987,0.0694 2.193994,0.24867 2.81758,0.4854 0.106668,0.0404 0.127778,0.0433 0.118091,0.0157 z m 7.598405,3.58587 v -0.13284 l 0.11625,-4.2e-4 c 0.194996,-8.7e-4 0.595099,-0.0623 0.747294,-0.11498 0.190682,-0.0661 0.391797,-0.25825 0.459353,-0.43906 0.09307,-0.24909 0.09619,-0.38048 0.100826,-4.24152 0.0043,-3.45511 0.0017,-3.70723 -0.03455,-3.87604 -0.113985,-0.52779 -0.306959,-0.65735 -1.08471,-0.72824 l -0.149469,-0.0136 v -0.12123 -0.12121 l 2.352602,0.009 c 2.518511,0.009 2.45954,0.007 2.99755,0.12393 0.571056,0.12463 1.184357,0.43041 1.531069,0.76334 0.4962,0.47647 0.733614,1.14834 0.668749,1.89247 -0.04227,0.48494 -0.184267,0.87595 -0.442592,1.21875 -0.377396,0.50086 -0.952714,0.85548 -1.708192,1.05291 -0.134488,0.0352 -0.205976,0.0643 -0.204301,0.0834 0.0035,0.0442 2.144682,3.59376 2.26957,3.76305 0.141318,0.19158 0.396241,0.43229 0.568903,0.53718 0.175031,0.10632 0.341105,0.16453 0.560865,0.19655 l 0.174033,0.0254 v 0.12835 0.12833 H 35.01574 33.776292 l -0.03073,-0.0498 c -0.01693,-0.0274 -0.337425,-0.59783 -0.712244,-1.26763 -0.74179,-1.32557 -1.612192,-2.86057 -1.785158,-3.14823 l -0.10896,-0.18118 -0.126102,0.0557 c -0.381693,0.16881 -0.706307,0.43893 -0.830344,0.69096 l -0.07196,0.14622 v 1.26252 c 0,1.40224 0.0061,1.47896 0.135807,1.73843 0.161352,0.32253 0.415137,0.4356 1.076482,0.47957 l 0.215879,0.0143 v 0.12952 0.12953 h -2.103496 -2.103495 v -0.13285 z m 3.311609,-4.82987 c 0.271674,-0.15852 0.533939,-0.2504 1.032361,-0.36167 0.251919,-0.0563 0.544703,-0.13154 0.650624,-0.16735 0.857182,-0.28975 1.234371,-0.90884 1.234041,-2.02547 -2.52e-4,-0.6293 -0.123612,-0.97256 -0.49087,-1.36511 -0.379575,-0.40572 -0.830361,-0.64691 -1.405279,-0.75187 -0.07508,-0.0137 -0.422697,-0.0299 -0.772404,-0.0359 l -0.635852,-0.0109 -0.06718,0.0672 -0.06718,0.0672 v 2.5131 2.51309 l 0.172966,-0.16986 c 0.09975,-0.098 0.247379,-0.21329 0.348735,-0.27243 z m 9.397931,4.83248 v -0.13025 l 0.1716,-0.0161 c 0.39879,-0.0372 0.69834,-0.15739 0.92777,-0.372 0.1617,-0.15127 0.24379,-0.26181 0.34492,-0.46444 0.0379,-0.076 0.85356,-2.086 1.81258,-4.46683 l 1.743685,-4.32876 h 0.1603 0.16029 l 1.05886,2.61276 c 2.44636,6.03646 2.48889,6.13817 2.70701,6.47535 0.26799,0.41428 0.50078,0.55354 0.92672,0.5544 l 0.1716,3.3e-4 v 0.13286 0.13284 h -2.1035 -2.10349 v -0.12903 -0.12905 l 0.28299,-0.0252 c 0.58175,-0.0517 0.78199,-0.17626 0.87832,-0.54619 0.0781,-0.30012 0.0254,-0.673 -0.1519,-1.07277 -0.26704,-0.60232 -0.64366,-0.98276 -1.31286,-1.3262 -0.29555,-0.15167 -0.6885,-0.30248 -0.99186,-0.38065 -0.453515,-0.11687 -1.327455,-0.2374 -1.579835,-0.21788 l -0.0963,0.008 -0.0761,0.1882 c -0.23388,0.57804 -0.60954,1.56587 -0.66101,1.73815 -0.0328,0.10961 -0.0941,0.30888 -0.13641,0.44284 -0.0897,0.28414 -0.12017,0.58834 -0.0751,0.74938 0.0753,0.26866 0.32715,0.39927 0.82576,0.42809 l 0.23802,0.0137 v 0.12953 0.12954 h -1.56101 -1.56102 z m 6.367035,-3.60622 c -0.22783,-0.60443 -1.66552,-4.27866 -1.67425,-4.27879 -0.0165,-2.4e-4 -1.439815,3.56321 -1.491295,3.73343 -0.0137,0.0453 -0.005,0.0475 0.23549,0.062 0.68617,0.0413 1.336175,0.11997 1.866035,0.22575 0.2945,0.0588 0.83735,0.20633 0.96787,0.26303 0.0964,0.0419 0.11361,0.0409 0.0961,-0.005 z m 25.62821,3.60696 v -0.12952 l 0.20482,-0.0137 c 0.30057,-0.0201 0.58078,-0.0748 0.71956,-0.14046 0.24006,-0.11357 0.39829,-0.34937 0.45077,-0.67178 0.0366,-0.22494 0.0567,-7.37427 0.0215,-7.67507 -0.0445,-0.38114 -0.14959,-0.61153 -0.33108,-0.7261 -0.14095,-0.089 -0.36456,-0.14022 -0.78325,-0.17946 l -0.14946,-0.014 v -0.12114 -0.12113 l 2.35259,0.008 c 2.30418,0.008 2.35886,0.009 2.65722,0.057 1.7268,0.27856 2.68315,1.30653 2.5445,2.73504 -0.0344,0.35407 -0.0934,0.57525 -0.22541,0.84464 -0.31002,0.63264 -0.87748,1.08321 -1.69688,1.34735 -0.13567,0.0438 -0.28784,0.0861 -0.33815,0.0941 -0.0503,0.008 -0.0963,0.0225 -0.10224,0.032 -0.0111,0.018 1.97747,3.34027 2.19942,3.67447 0.16032,0.2414 0.45861,0.53962 0.65758,0.65744 0.17428,0.10322 0.38468,0.17393 0.58483,0.19657 l 0.13479,0.0152 v 0.13018 0.13018 l -1.24152,-0.006 -1.24152,-0.006 -0.46523,-0.83032 c -1.58621,-2.83096 -2.12735,-3.77229 -2.17415,-3.782 -0.018,-0.003 -0.11581,0.0348 -0.21737,0.0856 -0.4658,0.23302 -0.73174,0.51409 -0.79323,0.83833 -0.0293,0.15441 -0.0293,1.98006 -2.6e-4,2.36356 0.0429,0.56266 0.17873,0.80708 0.52687,0.94829 0.12805,0.0519 0.57651,0.12191 0.78134,0.12191 h 0.10869 v 0.13285 0.13285 h -2.0924 -2.09242 v -0.12951 z m 3.18574,-4.76277 c 0.23756,-0.16009 0.53582,-0.28797 0.84085,-0.36057 0.91844,-0.21856 0.98776,-0.23847 1.20968,-0.34742 0.67958,-0.33361 0.96969,-0.89844 0.97324,-1.89481 0.002,-0.4098 -0.0298,-0.60748 -0.13625,-0.86354 -0.16886,-0.40588 -0.64009,-0.86641 -1.09846,-1.07351 -0.41236,-0.1863 -0.77685,-0.24394 -1.54268,-0.24394 -0.52731,0 -0.52924,1.7e-4 -0.59116,0.0535 l -0.0622,0.0535 -0.006,2.52851 -0.006,2.5285 0.13867,-0.14247 c 0.0763,-0.0784 0.20221,-0.1853 0.27988,-0.23763 z m 9.9445,4.76282 v -0.12946 l 0.27402,-0.0252 c 0.74614,-0.0686 0.95819,-0.22765 1.07828,-0.80858 0.0793,-0.38362 0.0906,-0.99083 0.0806,-4.33208 -0.0104,-3.50482 -0.005,-3.35917 -0.1497,-3.70776 -0.13747,-0.33019 -0.38804,-0.46348 -1.00092,-0.53238 l -0.12733,-0.0143 v -0.1202 -0.12018 h 1.9485 1.94851 v 0.12018 0.1202 l -0.12732,0.0141 c -0.55541,0.0614 -0.81796,0.19462 -0.95679,0.48552 -0.0959,0.20101 -0.13329,0.39204 -0.1557,0.796 -0.0323,0.5823 -0.0343,6.77717 -0.003,7.05514 0.0472,0.41016 0.12006,0.62323 0.26771,0.78341 0.15666,0.16995 0.38479,0.24354 0.84087,0.27124 l 0.24415,0.0148 v 0.12952 0.12953 h -2.08134 -2.08136 z"
       id="path44"
       inkscape:connector-curvature="0"
       sodipodi:nodetypes="cccccsccccsccccccccccccccccccccccscccccccccccccccccccccccccccccccccscccsccccccccccscccccccccccccccscccccccccccsccccccccccccccccscccccccccccccccccccccccccccccccccccccscccccccccccccccccccccccccccccccccscccccccccccccccccccccccccccccccccccccccccccccccccccccccccccccccccccscccccccccccccsccccccccccccccccccccccccccccccccc" />
  </g>
</svg>
