<?xml version="1.0" encoding="UTF-8" standalone="no"?>
<!-- Created with Inkscape (http://www.inkscape.org/) -->

<svg
   xmlns:dc="http://purl.org/dc/elements/1.1/"
   xmlns:cc="http://creativecommons.org/ns#"
   xmlns:rdf="http://www.w3.org/1999/02/22-rdf-syntax-ns#"
   xmlns:svg="http://www.w3.org/2000/svg"
   xmlns="http://www.w3.org/2000/svg"
   xmlns:sodipodi="http://sodipodi.sourceforge.net/DTD/sodipodi-0.dtd"
   xmlns:inkscape="http://www.inkscape.org/namespaces/inkscape"
   width="30"
   height="30"
   viewBox="0 0 7.9374998 7.9375002"
   version="1.1"
   id="svg678"
   inkscape:version="0.92.4 (5da689c313, 2019-01-14)"
   sodipodi:docname="my_account.svg">
  <defs
     id="defs672">
	

		
		
	</defs>
  <sodipodi:namedview
     id="base"
     pagecolor="#ffffff"
     bordercolor="#666666"
     borderopacity="1.0"
     inkscape:pageopacity="0.0"
     inkscape:pageshadow="2"
     inkscape:zoom="7.9195959"
     inkscape:cx="44.977161"
     inkscape:cy="1.6466924"
     inkscape:document-units="mm"
     inkscape:current-layer="layer1"
     showgrid="false"
     showguides="true"
     inkscape:guide-bbox="true"
     units="px"
     inkscape:window-width="1366"
     inkscape:window-height="705"
     inkscape:window-x="1912"
     inkscape:window-y="-8"
     inkscape:window-maximized="1">
    <sodipodi:guide
       position="158.22356,189.96182"
       orientation="0,1"
       id="guide809"
       inkscape:locked="false" />
    <sodipodi:guide
       position="101.69605,189.96182"
       orientation="0,1"
       id="guide811"
       inkscape:locked="false" />
  </sodipodi:namedview>
  <metadata
     id="metadata675">
    <rdf:RDF>
      <cc:Work
         rdf:about="">
        <dc:format>image/svg+xml</dc:format>
        <dc:type
           rdf:resource="http://purl.org/dc/dcmitype/StillImage" />
        <dc:title></dc:title>
      </cc:Work>
    </rdf:RDF>
  </metadata>
  <g
     inkscape:label="Layer 1"
     inkscape:groupmode="layer"
     id="layer1"
     transform="translate(0,-289.06247)">
    <path
       style="fill:#4d4d4d;fill-opacity:1;stroke-width:0.26458344"
       d="m 3.9469671,290.12366 c -0.97042,0 -1.760976,0.77962 -1.780254,1.74666 -2.38e-4,0.012 -0.0021,0.0236 -0.0021,0.0357 0,0.004 0.0019,0.007 0.0021,0.0103 v 0.74983 h -0.0863 c -0.174016,0 -0.315743,0.14172 -0.315743,0.31574 v 2.0314 c 0,0.52084 0.424325,0.94465 0.94516,0.94465 h 2.47582 c 0.520835,0 0.945161,-0.42381 0.945161,-0.94465 v -2.0314 c 0,-0.17402 -0.141211,-0.31574 -0.315225,-0.31574 h -0.08578 v -0.76016 c 0,-0.98246 -0.799169,-1.78232 -1.782837,-1.78232 z m 0,0.32608 c 0.802402,0 1.456241,0.65262 1.456241,1.45624 v 0.76016 h -2.912999 v -0.75499 c 5.8e-5,-0.002 0.0011,-0.003 0.0011,-0.005 0,-0.80241 0.652116,-1.45624 1.455727,-1.45624 z m -1.854668,2.54299 h 3.712435 v 2.02055 c 0,0.34078 -0.277096,0.61857 -0.619083,0.61857 h -2.474785 c -0.340778,0 -0.618567,-0.27658 -0.618567,-0.61857 z m 1.856219,0.73329 c -0.337156,0 -0.610301,0.27436 -0.610301,0.6103 0,0.33595 0.273145,0.6103 0.610301,0.6103 0.337153,0 0.610298,-0.27435 0.610298,-0.6103 0,-0.33715 -0.274354,-0.6103 -0.610298,-0.6103 z m 0,0.32505 c 0.157094,0 0.283702,0.12833 0.283702,0.28422 0,0.15588 -0.126608,0.28525 -0.283702,0.28525 -0.157099,0 -0.284221,-0.12833 -0.284221,-0.28422 0,-0.15588 0.127122,-0.28525 0.284221,-0.28525 z"
       id="path1062"
       inkscape:connector-curvature="0" />
    <g
       style="fill:#4d4d4d;fill-opacity:1;stroke-width:21.89466286"
       id="g1070"
       transform="matrix(0.01208438,0,0,0.01208438,76.899477,101.16905)">
</g>
    <g
       style="fill:#4d4d4d;fill-opacity:1;stroke-width:21.89466286"
       id="g1072"
       transform="matrix(0.01208438,0,0,0.01208438,76.899477,101.16905)">
</g>
    <g
       style="fill:#4d4d4d;fill-opacity:1;stroke-width:21.89466286"
       id="g1074"
       transform="matrix(0.01208438,0,0,0.01208438,76.899477,101.16905)">
</g>
    <g
       style="fill:#4d4d4d;fill-opacity:1;stroke-width:21.89466286"
       id="g1076"
       transform="matrix(0.01208438,0,0,0.01208438,76.899477,101.16905)">
</g>
    <g
       style="fill:#4d4d4d;fill-opacity:1;stroke-width:21.89466286"
       id="g1078"
       transform="matrix(0.01208438,0,0,0.01208438,76.899477,101.16905)">
</g>
    <g
       style="fill:#4d4d4d;fill-opacity:1;stroke-width:21.89466286"
       id="g1080"
       transform="matrix(0.01208438,0,0,0.01208438,76.899477,101.16905)">
</g>
    <g
       style="fill:#4d4d4d;fill-opacity:1;stroke-width:21.89466286"
       id="g1082"
       transform="matrix(0.01208438,0,0,0.01208438,76.899477,101.16905)">
</g>
    <g
       style="fill:#4d4d4d;fill-opacity:1;stroke-width:21.89466286"
       id="g1084"
       transform="matrix(0.01208438,0,0,0.01208438,76.899477,101.16905)">
</g>
    <g
       style="fill:#4d4d4d;fill-opacity:1;stroke-width:21.89466286"
       id="g1086"
       transform="matrix(0.01208438,0,0,0.01208438,76.899477,101.16905)">
</g>
    <g
       style="fill:#4d4d4d;fill-opacity:1;stroke-width:21.89466286"
       id="g1088"
       transform="matrix(0.01208438,0,0,0.01208438,76.899477,101.16905)">
</g>
    <g
       style="fill:#4d4d4d;fill-opacity:1;stroke-width:21.89466286"
       id="g1090"
       transform="matrix(0.01208438,0,0,0.01208438,76.899477,101.16905)">
</g>
    <g
       style="fill:#4d4d4d;fill-opacity:1;stroke-width:21.89466286"
       id="g1092"
       transform="matrix(0.01208438,0,0,0.01208438,76.899477,101.16905)">
</g>
    <g
       style="fill:#4d4d4d;fill-opacity:1;stroke-width:21.89466286"
       id="g1094"
       transform="matrix(0.01208438,0,0,0.01208438,76.899477,101.16905)">
</g>
    <g
       style="fill:#4d4d4d;fill-opacity:1;stroke-width:21.89466286"
       id="g1096"
       transform="matrix(0.01208438,0,0,0.01208438,76.899477,101.16905)">
</g>
    <g
       style="fill:#4d4d4d;fill-opacity:1;stroke-width:21.89466286"
       id="g1098"
       transform="matrix(0.01208438,0,0,0.01208438,76.899477,101.16905)">
</g>
  </g>
</svg>
