<?xml version="1.0" encoding="UTF-8" standalone="no"?>
<!-- Created with Inkscape (http://www.inkscape.org/) -->

<svg
   xmlns:dc="http://purl.org/dc/elements/1.1/"
   xmlns:cc="http://creativecommons.org/ns#"
   xmlns:rdf="http://www.w3.org/1999/02/22-rdf-syntax-ns#"
   xmlns:svg="http://www.w3.org/2000/svg"
   xmlns="http://www.w3.org/2000/svg"
   xmlns:sodipodi="http://sodipodi.sourceforge.net/DTD/sodipodi-0.dtd"
   xmlns:inkscape="http://www.inkscape.org/namespaces/inkscape"
   width="30"
   height="30"
   viewBox="0 0 7.9374998 7.9375002"
   version="1.1"
   id="svg678"
   inkscape:version="0.92.4 (5da689c313, 2019-01-14)"
   sodipodi:docname="search.svg">
  <defs
     id="defs672">
	

		
		
	</defs>
  <sodipodi:namedview
     id="base"
     pagecolor="#ffffff"
     bordercolor="#666666"
     borderopacity="1.0"
     inkscape:pageopacity="0.0"
     inkscape:pageshadow="2"
     inkscape:zoom="7.9195959"
     inkscape:cx="44.977161"
     inkscape:cy="1.6466924"
     inkscape:document-units="mm"
     inkscape:current-layer="layer1"
     showgrid="false"
     showguides="true"
     inkscape:guide-bbox="true"
     units="px"
     inkscape:window-width="1366"
     inkscape:window-height="705"
     inkscape:window-x="1912"
     inkscape:window-y="-8"
     inkscape:window-maximized="1">
    <sodipodi:guide
       position="158.22356,189.96182"
       orientation="0,1"
       id="guide809"
       inkscape:locked="false" />
    <sodipodi:guide
       position="101.69605,189.96182"
       orientation="0,1"
       id="guide811"
       inkscape:locked="false" />
  </sodipodi:namedview>
  <metadata
     id="metadata675">
    <rdf:RDF>
      <cc:Work
         rdf:about="">
        <dc:format>image/svg+xml</dc:format>
        <dc:type
           rdf:resource="http://purl.org/dc/dcmitype/StillImage" />
        <dc:title></dc:title>
      </cc:Work>
    </rdf:RDF>
  </metadata>
  <g
     inkscape:label="Layer 1"
     inkscape:groupmode="layer"
     id="layer1"
     transform="translate(0,-289.06247)">
    <g
       style="fill:#4d4d4d;fill-opacity:1;stroke-width:21.89466286"
       id="g1070"
       transform="matrix(0.01208438,0,0,0.01208438,76.899477,101.16905)">
</g>
    <g
       style="fill:#4d4d4d;fill-opacity:1;stroke-width:21.89466286"
       id="g1072"
       transform="matrix(0.01208438,0,0,0.01208438,76.899477,101.16905)">
</g>
    <g
       style="fill:#4d4d4d;fill-opacity:1;stroke-width:21.89466286"
       id="g1074"
       transform="matrix(0.01208438,0,0,0.01208438,76.899477,101.16905)">
</g>
    <g
       style="fill:#4d4d4d;fill-opacity:1;stroke-width:21.89466286"
       id="g1076"
       transform="matrix(0.01208438,0,0,0.01208438,76.899477,101.16905)">
</g>
    <g
       style="fill:#4d4d4d;fill-opacity:1;stroke-width:21.89466286"
       id="g1078"
       transform="matrix(0.01208438,0,0,0.01208438,76.899477,101.16905)">
</g>
    <g
       style="fill:#4d4d4d;fill-opacity:1;stroke-width:21.89466286"
       id="g1080"
       transform="matrix(0.01208438,0,0,0.01208438,76.899477,101.16905)">
</g>
    <g
       style="fill:#4d4d4d;fill-opacity:1;stroke-width:21.89466286"
       id="g1082"
       transform="matrix(0.01208438,0,0,0.01208438,76.899477,101.16905)">
</g>
    <g
       style="fill:#4d4d4d;fill-opacity:1;stroke-width:21.89466286"
       id="g1084"
       transform="matrix(0.01208438,0,0,0.01208438,76.899477,101.16905)">
</g>
    <g
       style="fill:#4d4d4d;fill-opacity:1;stroke-width:21.89466286"
       id="g1086"
       transform="matrix(0.01208438,0,0,0.01208438,76.899477,101.16905)">
</g>
    <g
       style="fill:#4d4d4d;fill-opacity:1;stroke-width:21.89466286"
       id="g1088"
       transform="matrix(0.01208438,0,0,0.01208438,76.899477,101.16905)">
</g>
    <g
       style="fill:#4d4d4d;fill-opacity:1;stroke-width:21.89466286"
       id="g1090"
       transform="matrix(0.01208438,0,0,0.01208438,76.899477,101.16905)">
</g>
    <g
       style="fill:#4d4d4d;fill-opacity:1;stroke-width:21.89466286"
       id="g1092"
       transform="matrix(0.01208438,0,0,0.01208438,76.899477,101.16905)">
</g>
    <g
       style="fill:#4d4d4d;fill-opacity:1;stroke-width:21.89466286"
       id="g1094"
       transform="matrix(0.01208438,0,0,0.01208438,76.899477,101.16905)">
</g>
    <g
       style="fill:#4d4d4d;fill-opacity:1;stroke-width:21.89466286"
       id="g1096"
       transform="matrix(0.01208438,0,0,0.01208438,76.899477,101.16905)">
</g>
    <g
       style="fill:#4d4d4d;fill-opacity:1;stroke-width:21.89466286"
       id="g1098"
       transform="matrix(0.01208438,0,0,0.01208438,76.899477,101.16905)">
</g>
    <g
       id="g871"
       transform="matrix(0.01306413,0,0,0.01306413,6.5861985,288.67521)"
       style="fill:#4d4d4d;fill-opacity:1;stroke-width:20.2526474">
      <g
         id="g817"
         style="fill:#4d4d4d;fill-opacity:1;stroke-width:20.2526474" />
      <g
         id="g819"
         style="fill:#4d4d4d;fill-opacity:1;stroke-width:20.2526474" />
      <g
         id="g821"
         style="fill:#4d4d4d;fill-opacity:1;stroke-width:20.2526474" />
      <g
         id="g823"
         style="fill:#4d4d4d;fill-opacity:1;stroke-width:20.2526474" />
      <g
         id="g825"
         style="fill:#4d4d4d;fill-opacity:1;stroke-width:20.2526474" />
      <g
         id="g827"
         style="fill:#4d4d4d;fill-opacity:1;stroke-width:20.2526474" />
      <g
         id="g829"
         style="fill:#4d4d4d;fill-opacity:1;stroke-width:20.2526474" />
      <g
         id="g831"
         style="fill:#4d4d4d;fill-opacity:1;stroke-width:20.2526474" />
      <g
         id="g833"
         style="fill:#4d4d4d;fill-opacity:1;stroke-width:20.2526474" />
      <g
         id="g835"
         style="fill:#4d4d4d;fill-opacity:1;stroke-width:20.2526474" />
      <g
         id="g837"
         style="fill:#4d4d4d;fill-opacity:1;stroke-width:20.2526474" />
      <g
         id="g839"
         style="fill:#4d4d4d;fill-opacity:1;stroke-width:20.2526474" />
      <g
         id="g841"
         style="fill:#4d4d4d;fill-opacity:1;stroke-width:20.2526474" />
      <g
         id="g843"
         style="fill:#4d4d4d;fill-opacity:1;stroke-width:20.2526474" />
      <g
         id="g845"
         style="fill:#4d4d4d;fill-opacity:1;stroke-width:20.2526474" />
    </g>
    <g
       transform="matrix(0.01306413,0,0,0.01306413,1.0296729,290.11178)"
       id="g815"
       style="fill:#4d4d4d;fill-opacity:1;stroke-width:20.2526474">
      <path
         id="path813"
         d="M 447.05,428 337.45,318.4 c 29.4,-33.8 47.2,-77.9 47.2,-126.1 C 384.65,86.2 298.35,0 192.35,0 86.25,0 0.05,86.3 0.05,192.3 c 0,106 86.3,192.3 192.3,192.3 48.2,0 92.3,-17.8 126.1,-47.2 L 428.05,447 c 2.6,2.6 6.1,4 9.5,4 3.4,0 6.9,-1.3 9.5,-4 5.2,-5.2 5.2,-13.8 0,-19 z M 26.95,192.3 c 0,-91.2 74.2,-165.3 165.3,-165.3 91.2,0 165.3,74.2 165.3,165.3 0,91.1 -74.1,165.4 -165.3,165.4 -91.1,0 -165.3,-74.2 -165.3,-165.4 z"
         inkscape:connector-curvature="0"
         style="fill:#4d4d4d;fill-opacity:1;stroke-width:20.2526474" />
    </g>
  </g>
</svg>
